# File created by Blade
# Date/Time:  Mon Sep 22 15:39:46 2014
# Frame Rate: 120.000 fps
#------------------------------------------------------
:FULLY-SPECIFIED
:DEGREES
1672
root 1.709455 37.048916 2.549592 -2.110924 -7.428290 1.903238
RightUpLeg 9.828374 -3.482321 -3.240616
RightLeg -5.575505 -0.000000 0.000000
RightFoot -11.989283 -13.027455 15.222005
RightToeBase 15.990767 -0.000000 -0.000000
LeftUpLeg 9.408462 5.156469 2.299324
LeftLeg -2.480420 -0.000000 0.000000
LeftFoot -10.193351 14.512972 -18.944999
LeftToeBase 9.262275 -0.000000 -0.000000
Spine 1.325351 6.642772 -6.090273
RightShoulder 12.212077 -12.821575 -37.755471
RightArm 26.992839 -10.852629 -2.865683
RightForeArm 91.841213 -0.000000 101.165309
RightHand -1.593660 -0.000000 -2.229538
RightHandThumb1 -24.326973 -0.000000 -32.862282
LeftShoulder -10.790151 36.293627 -5.582124
LeftArm 43.182222 11.383883 -58.734074
LeftForeArm 23.553544 -0.000000 22.004259
LeftHand -14.577324 0.000000 -7.586227
LeftHandThumb1 -26.253704 0.000000 33.147579
Head 6.183494 -34.776300 -4.866358
1673
root 1.698366 37.049008 2.551618 -2.305917 -7.470549 1.966536
RightUpLeg 10.016577 -3.416751 -3.290955
RightLeg -5.580910 -0.000000 0.000000
RightFoot -12.009682 -13.056514 15.142198
RightToeBase 15.982590 -0.000000 -0.000000
LeftUpLeg 9.570343 5.183305 2.275320
LeftLeg -2.406506 -0.000000 0.000000
LeftFoot -10.193609 14.489302 -18.998953
LeftToeBase 9.230399 -0.000000 -0.000000
Spine 1.544492 6.966045 -6.280687
RightShoulder 12.996726 -13.254677 -38.194256
RightArm 27.357693 -12.900846 -2.952356
RightForeArm 91.920059 -0.000000 100.850376
RightHand -1.632983 -0.000000 -3.637920
RightHandThumb1 -24.326973 -0.000000 -32.862282
LeftShoulder -11.227857 36.078257 -6.324582
LeftArm 43.659261 11.313254 -57.714452
LeftForeArm 23.477982 -0.000000 21.646043
LeftHand -14.435745 -0.000000 -7.832523
LeftHandThumb1 -26.253704 0.000000 33.147579
Head 6.185805 -35.457977 -4.988164
1674
root 1.688053 37.048314 2.552063 -2.489218 -7.490913 2.019335
RightUpLeg 10.163706 -3.426464 -3.338999
RightLeg -5.521315 -0.000000 0.000000
RightFoot -12.054341 -13.046239 15.050559
RightToeBase 15.831636 -0.000000 -0.000000
LeftUpLeg 9.712706 5.160236 2.251625
LeftLeg -2.326363 -0.000000 0.000000
LeftFoot -10.220414 14.510820 -19.042705
LeftToeBase 9.227075 -0.000000 -0.000000
Spine 1.769263 7.517723 -6.484119
RightShoulder 13.510660 -14.002123 -38.378869
RightArm 27.508785 -14.294116 -2.762000
RightForeArm 91.887703 0.000000 100.664090
RightHand -1.687077 -0.000000 -4.520917
RightHandThumb1 -24.326973 -0.000000 -32.862282
LeftShoulder -11.396581 35.805970 -6.900856
LeftArm 44.072643 11.244843 -56.740592
LeftForeArm 23.574683 -0.000000 21.331413
LeftHand -14.425621 -0.000000 -8.109599
LeftHandThumb1 -26.253704 0.000000 33.147579
Head 6.149865 -36.317073 -5.049542
1675
root 1.674060 37.046419 2.547967 -2.647955 -7.479310 2.027772
RightUpLeg 10.328542 -3.360806 -3.331579
RightLeg -5.536124 -0.000000 0.000000
RightFoot -12.095472 -13.063119 15.085496
RightToeBase 16.017144 -0.000000 -0.000000
LeftUpLeg 9.814552 5.117973 2.275488
LeftLeg -2.221485 -0.000000 0.000000
LeftFoot -10.294323 14.505840 -19.078793
LeftToeBase 9.290914 -0.000000 -0.000000
Spine 2.028315 8.084833 -6.639557
RightShoulder 13.888869 -14.780433 -38.396629
RightArm 27.488605 -15.249708 -2.286719
RightForeArm 91.754218 -0.000000 100.614470
RightHand -1.722990 0.000000 -5.759911
RightHandThumb1 -24.326973 -0.000000 -32.862282
LeftShoulder -11.572756 35.462505 -7.506221
LeftArm 44.438218 11.161144 -55.790318
LeftForeArm 23.665070 -0.000000 21.089527
LeftHand -14.404357 0.000000 -8.058708
LeftHandThumb1 -26.253704 0.000000 33.147579
Head 5.908890 -37.047413 -4.991952
1676
root 1.661920 37.042633 2.544425 -2.817336 -7.428114 2.037691
RightUpLeg 10.499212 -3.377666 -3.329925
RightLeg -5.531607 -0.000000 0.000000
RightFoot -12.127724 -13.092787 15.029040
RightToeBase 16.003781 -0.000000 -0.000000
LeftUpLeg 9.927731 5.034654 2.292959
LeftLeg -2.125880 -0.000000 0.000000
LeftFoot -10.360109 14.515605 -19.085863
LeftToeBase 9.256915 -0.000000 -0.000000
Spine 2.340854 8.641030 -6.785137
RightShoulder 14.123753 -15.619736 -38.301408
RightArm 27.404275 -15.792335 -1.617354
RightForeArm 91.788107 -0.000000 100.501999
RightHand -1.776067 -0.000000 -6.344614
RightHandThumb1 -24.326973 -0.000000 -32.862282
LeftShoulder -11.767676 35.045944 -8.130330
LeftArm 44.753608 11.040483 -54.893745
LeftForeArm 23.658176 -0.000000 20.918577
LeftHand -14.306935 -0.000000 -8.188725
LeftHandThumb1 -26.253704 0.000000 33.147579
Head 5.549837 -37.627097 -4.944894
1677
root 1.648724 37.039103 2.540735 -2.961345 -7.349671 2.035633
RightUpLeg 10.655113 -3.411263 -3.320041
RightLeg -5.529435 -0.000000 0.000000
RightFoot -12.166665 -13.102818 14.997566
RightToeBase 15.846731 -0.000000 -0.000000
LeftUpLeg 10.015323 4.951289 2.322069
LeftLeg -2.039426 -0.000000 0.000000
LeftFoot -10.422680 14.506864 -19.095821
LeftToeBase 9.304055 -0.000000 -0.000000
Spine 2.647449 9.192348 -6.919302
RightShoulder 14.138965 -16.330430 -38.013337
RightArm 27.375534 -16.186940 -0.973475
RightForeArm 91.821059 -0.000000 100.354104
RightHand -1.945657 -0.000000 -6.288331
RightHandThumb1 -24.326973 -0.000000 -32.862282
LeftShoulder -11.919529 34.715997 -8.739125
LeftArm 45.053873 10.770983 -54.128932
LeftForeArm 23.811059 -0.000000 20.846783
LeftHand -14.369378 -0.000000 -8.492516
LeftHandThumb1 -26.253704 0.000000 33.147579
Head 5.062444 -38.052032 -4.780085
1678
root 1.636875 37.033705 2.533727 -3.074524 -7.219353 2.018241
RightUpLeg 10.779134 -3.519418 -3.302603
RightLeg -5.518189 -0.000000 0.000000
RightFoot -12.208714 -13.062487 15.013920
RightToeBase 16.012534 -0.000000 -0.000000
LeftUpLeg 10.070608 4.788631 2.351526
LeftLeg -1.964678 -0.000000 0.000000
LeftFoot -10.497213 14.528908 -19.065900
LeftToeBase 9.312515 -0.000000 -0.000000
Spine 2.944407 9.725050 -7.018820
RightShoulder 13.936266 -17.012859 -37.606703
RightArm 27.453008 -16.379729 -0.359183
RightForeArm 91.885070 -0.000000 100.243498
RightHand -2.021015 -0.000000 -6.328031
RightHandThumb1 -24.326973 -0.000000 -32.862282
LeftShoulder -11.964239 34.401616 -9.216352
LeftArm 45.281570 10.508860 -53.561254
LeftForeArm 23.832122 -0.000000 20.810328
LeftHand -14.334753 0.000000 -8.051404
LeftHandThumb1 -26.253704 0.000000 33.147579
Head 4.492789 -38.285977 -4.557326
1679
root 1.624057 37.027228 2.528786 -3.169809 -7.079547 1.989897
RightUpLeg 10.909142 -3.623738 -3.271242
RightLeg -5.539646 -0.000000 0.000000
RightFoot -12.240554 -13.064643 14.991154
RightToeBase 15.876885 -0.000000 -0.000000
LeftUpLeg 10.131180 4.674669 2.399763
LeftLeg -1.939964 -0.000000 0.000000
LeftFoot -10.542435 14.530656 -19.006173
LeftToeBase 9.292048 -0.000000 -0.000000
Spine 3.208907 10.191271 -7.099586
RightShoulder 13.665666 -17.636882 -37.173520
RightArm 27.604307 -16.404627 0.228778
RightForeArm 91.953702 -0.000000 100.189730
RightHand -2.177920 -0.000000 -6.309832
RightHandThumb1 -24.326973 -0.000000 -32.862282
LeftShoulder -11.951711 34.047018 -9.592437
LeftArm 45.283014 10.236177 -53.212993
LeftForeArm 24.017297 -0.000000 20.959527
LeftHand -14.494889 -0.000000 -8.009823
LeftHandThumb1 -26.253704 0.000000 33.147579
Head 3.959583 -38.410962 -4.389553
1680
root 1.612744 37.020268 2.524855 -3.257958 -6.933769 1.950697
RightUpLeg 11.044071 -3.711650 -3.225690
RightLeg -5.577550 -0.000000 0.000000
RightFoot -12.259827 -13.096173 14.965354
RightToeBase 15.840570 -0.000000 -0.000000
LeftUpLeg 10.204440 4.548980 2.454030
LeftLeg -1.946779 -0.000000 0.000000
LeftFoot -10.589776 14.537189 -18.957235
LeftToeBase 9.318644 -0.000000 -0.000000
Spine 3.445089 10.589839 -7.153903
RightShoulder 13.392225 -18.042378 -36.677929
RightArm 27.772203 -16.511968 0.681353
RightForeArm 91.818539 -0.000000 100.170965
RightHand -2.148306 -0.000000 -6.134396
RightHandThumb1 -24.326973 -0.000000 -32.862282
LeftShoulder -11.954849 33.882805 -9.877073
LeftArm 45.376737 9.838250 -53.109499
LeftForeArm 23.712579 -0.000000 21.061447
LeftHand -14.463470 -0.000000 -7.755458
LeftHandThumb1 -26.253704 0.000000 33.147579
Head 3.516329 -38.423438 -4.222453
1681
root 1.600188 37.013648 2.518922 -3.305087 -6.765086 1.912769
RightUpLeg 11.162694 -3.790354 -3.174908
RightLeg -5.667266 -0.000000 0.000000
RightFoot -12.270563 -13.146058 14.985932
RightToeBase 15.861356 -0.000000 -0.000000
LeftUpLeg 10.234928 4.456206 2.513111
LeftLeg -1.958278 -0.000000 0.000000
LeftFoot -10.605561 14.479625 -18.888313
LeftToeBase 9.350065 -0.000000 -0.000000
Spine 3.626096 10.845097 -7.223040
RightShoulder 13.135684 -18.337593 -36.194255
RightArm 27.973411 -16.542034 1.109948
RightForeArm 91.651214 0.000000 100.239294
RightHand -2.262843 -0.000000 -6.049447
RightHandThumb1 -24.326973 -0.000000 -32.862282
LeftShoulder -11.926004 33.638474 -9.990379
LeftArm 45.253302 9.513209 -53.317203
LeftForeArm 23.674742 -0.000000 21.211631
LeftHand -14.568825 -0.000000 -7.264203
LeftHandThumb1 -26.253704 0.000000 33.147579
Head 3.100833 -38.320140 -4.021037
1682
root 1.587176 37.006896 2.515313 -3.324343 -6.595352 1.877358
RightUpLeg 11.264130 -3.833346 -3.120401
RightLeg -5.768969 -0.000000 0.000000
RightFoot -12.292223 -13.228117 15.036347
RightToeBase 16.023342 -0.000000 -0.000000
LeftUpLeg 10.260358 4.376590 2.570546
LeftLeg -2.014524 -0.000000 0.000000
LeftFoot -10.596846 14.427932 -18.810783
LeftToeBase 9.356641 -0.000000 -0.000000
Spine 3.736623 11.002996 -7.289648
RightShoulder 12.977814 -18.527095 -35.804710
RightArm 28.181683 -16.586810 1.505747
RightForeArm 91.304108 -0.000000 100.400411
RightHand -2.447367 -0.000000 -6.017564
RightHandThumb1 -24.326973 -0.000000 -32.862282
LeftShoulder -11.936696 33.471069 -10.000048
LeftArm 45.078278 9.256647 -53.669418
LeftForeArm 23.511469 -0.000000 21.454242
LeftHand -14.810578 -0.000000 -6.705188
LeftHandThumb1 -26.253704 0.000000 33.147579
Head 2.842726 -38.155970 -3.886571
1683
root 1.574391 37.001466 2.516409 -3.323161 -6.452258 1.851579
RightUpLeg 11.345563 -3.883428 -3.076079
RightLeg -5.870619 -0.000000 0.000000
RightFoot -12.288655 -13.302506 15.020353
RightToeBase 15.864880 -0.000000 -0.000000
LeftUpLeg 10.297762 4.398990 2.632850
LeftLeg -2.118260 -0.000000 0.000000
LeftFoot -10.531319 14.307703 -18.740728
LeftToeBase 9.374871 -0.000000 -0.000000
Spine 3.768771 11.089751 -7.369003
RightShoulder 12.927768 -18.637751 -35.506799
RightArm 28.425742 -16.697244 1.835129
RightForeArm 91.195412 -0.000000 100.623282
RightHand -2.395841 0.000000 -6.181506
RightHandThumb1 -24.326973 -0.000000 -32.862282
LeftShoulder -11.934669 33.458729 -9.890246
LeftArm 44.933176 8.928360 -54.248430
LeftForeArm 23.330955 0.000000 21.619498
LeftHand -14.954518 -0.000000 -6.251772
LeftHandThumb1 -26.253704 0.000000 33.147579
Head 2.744549 -37.962873 -3.779855
1684
root 1.564453 36.997506 2.515273 -3.295787 -6.323722 1.843365
RightUpLeg 11.357881 -3.973409 -3.052881
RightLeg -5.903467 -0.000000 0.000000
RightFoot -12.310231 -13.347180 14.985744
RightToeBase 15.864782 -0.000000 -0.000000
LeftUpLeg 10.314019 4.393667 2.668570
LeftLeg -2.238018 -0.000000 0.000000
LeftFoot -10.443812 14.204997 -18.703686
LeftToeBase 9.347243 -0.000000 -0.000000
Spine 3.748428 11.083126 -7.474269
RightShoulder 12.958931 -18.802716 -35.327134
RightArm 28.740720 -16.673029 2.070544
RightForeArm 90.950325 -0.000000 100.823264
RightHand -2.467617 0.000000 -6.303743
RightHandThumb1 -24.326973 -0.000000 -32.862282
LeftShoulder -11.968410 33.523020 -9.701027
LeftArm 44.759154 8.687180 -54.904965
LeftForeArm 22.952668 -0.000000 21.827512
LeftHand -15.103907 -0.000000 -5.386142
LeftHandThumb1 -26.253704 0.000000 33.147579
Head 2.722650 -37.723872 -3.677732
